HIERARCHY
ROOT hip
{
  OFFSET 0 0 0
  CHANNELS 6 Xposition Yposition Zposition Zrotation Yrotation Xrotation
  JOINT abdomen
  {
    OFFSET 0 20.6881 -0.73152
    CHANNELS 3 Zrotation Xrotation Yrotation
    JOINT chest
    {
      OFFSET 0 11.7043 -0.48768
      CHANNELS 3 Zrotation Xrotation Yrotation
      JOINT neck
      {
        OFFSET 0 22.1894 -2.19456
        CHANNELS 3 Zrotation Xrotation Yrotation
        JOINT head
        {
          OFFSET -0.24384 7.07133 1.2192
          CHANNELS 3 Zrotation Xrotation Yrotation
          JOINT leftEye
          {
            OFFSET 4.14528 8.04674 8.04672
            CHANNELS 3 Zrotation Xrotation Yrotation
            End Site
            {
              OFFSET 1 0 0
            }
          }
          JOINT rightEye
          {
            OFFSET -3.6576 8.04674 8.04672
            CHANNELS 3 Zrotation Xrotation Yrotation
            End Site
            {
              OFFSET 1 0 0
            }
          }
        }
      }
      JOINT rCollar
      {
        OFFSET -2.68224 19.2634 -4.8768
        CHANNELS 3 Zrotation Xrotation Yrotation
        JOINT rShldr
        {
          OFFSET -8.77824 -1.95073 1.46304
          CHANNELS 3 Zrotation Xrotation Yrotation
          JOINT rForeArm
          {
            OFFSET -28.1742 -1.7115 0.48768
            CHANNELS 3 Zrotation Xrotation Yrotation
            JOINT rHand
            {
              OFFSET -22.5879 0.773209 7.07136
              CHANNELS 3 Zrotation Xrotation Yrotation
              JOINT rThumb1
              {
                OFFSET -1.2192 -0.487915 3.41376
                CHANNELS 3 Zrotation Xrotation Yrotation
                JOINT rThumb2
                {
                  OFFSET -3.37035 -0.52449 3.41376
                  CHANNELS 3 Zrotation Xrotation Yrotation
                  End Site
                  {
                    OFFSET -1.78271 -1.18214 1.43049
                  }
                }
              }
              JOINT rIndex1
              {
                OFFSET -7.75947 0.938293 5.60832
                CHANNELS 3 Zrotation Xrotation Yrotation
                JOINT rIndex2
                {
                  OFFSET -2.54057 -0.884171 1.56538
                  CHANNELS 3 Zrotation Xrotation Yrotation
                  End Site
                  {
                    OFFSET -1.62519 -0.234802 1.16502
                  }
                }
              }
              JOINT rMid1
              {
                OFFSET -8.24714 1.18213 3.41376
                CHANNELS 3 Zrotation Xrotation Yrotation
                JOINT rMid2
                {
                  OFFSET -3.10165 -0.590103 1.0647
                  CHANNELS 3 Zrotation Xrotation Yrotation
                  End Site
                  {
                    OFFSET -2.48547 -0.328903 0.83742
                  }
                }
              }
              JOINT rRing1
              {
                OFFSET -8.82822 0.546677 1.51678
                CHANNELS 3 Zrotation Xrotation Yrotation
                JOINT rRing2
                {
                  OFFSET -2.60934 -0.819778 -0.0198488
                  CHANNELS 3 Zrotation Xrotation Yrotation
                  End Site
                  {
                    OFFSET -2.33842 -0.294052 0.168128
                  }
                }
              }
              JOINT rPinky1
              {
                OFFSET -8.27202 -0.0477905 -0.4584
                CHANNELS 3 Zrotation Xrotation Yrotation
                JOINT rPinky2
                {
                  OFFSET -1.82734 -0.647385 -0.700984
                  CHANNELS 3 Zrotation Xrotation Yrotation
                  End Site
                  {
                    OFFSET -1.69225 -0.51767 -0.607171
                  }
                }
              }
            }
          }
        }
      }
      JOINT lCollar
      {
        OFFSET 2.68224 19.2634 -4.8768
        CHANNELS 3 Zrotation Xrotation Yrotation
        JOINT lShldr
        {
          OFFSET 8.77824 -1.95073 1.46304
          CHANNELS 3 Zrotation Xrotation Yrotation
          JOINT lForeArm
          {
            OFFSET 28.1742 -1.7115 0.48768
            CHANNELS 3 Zrotation Xrotation Yrotation
            JOINT lHand
            {
              OFFSET 22.5879 0.773209 7.07136
              CHANNELS 3 Zrotation Xrotation Yrotation
              JOINT lThumb1
              {
                OFFSET 1.2192 -0.487915 3.41376
                CHANNELS 3 Zrotation Xrotation Yrotation
                JOINT lThumb2
                {
                  OFFSET 3.37035 -0.52449 3.41376
                  CHANNELS 3 Zrotation Xrotation Yrotation
                  End Site
                  {
                    OFFSET 1.78271 -1.18214 1.43049
                  }
                }
              }
              JOINT lIndex1
              {
                OFFSET 7.75947 0.938293 5.60832
                CHANNELS 3 Zrotation Xrotation Yrotation
                JOINT lIndex2
                {
                  OFFSET 2.54057 -0.884171 1.56538
                  CHANNELS 3 Zrotation Xrotation Yrotation
                  End Site
                  {
                    OFFSET 1.62519 -0.234802 1.16502
                  }
                }
              }
              JOINT lMid1
              {
                OFFSET 8.24714 1.18213 3.41376
                CHANNELS 3 Zrotation Xrotation Yrotation
                JOINT lMid2
                {
                  OFFSET 3.10165 -0.590103 1.0647
                  CHANNELS 3 Zrotation Xrotation Yrotation
                  End Site
                  {
                    OFFSET 2.48547 -0.328903 0.83742
                  }
                }
              }
              JOINT lRing1
              {
                OFFSET 8.82822 0.546677 1.51678
                CHANNELS 3 Zrotation Xrotation Yrotation
                JOINT lRing2
                {
                  OFFSET 2.60934 -0.819778 -0.0198488
                  CHANNELS 3 Zrotation Xrotation Yrotation
                  End Site
                  {
                    OFFSET 2.33842 -0.294052 0.168128
                  }
                }
              }
              JOINT lPinky1
              {
                OFFSET 8.27202 -0.0477905 -0.4584
                CHANNELS 3 Zrotation Xrotation Yrotation
                JOINT lPinky2
                {
                  OFFSET 1.82734 -0.647385 -0.700984
                  CHANNELS 3 Zrotation Xrotation Yrotation
                  End Site
                  {
                    OFFSET 1.69225 -0.51767 -0.607171
                  }
                }
              }
            }
          }
        }
      }
    }
  }
  JOINT rButtock
  {
    OFFSET -8.77824 4.35084 1.2192
    CHANNELS 3 Zrotation Xrotation Yrotation
    JOINT rThigh
    {
      OFFSET 0 -1.70687 -2.19456
      CHANNELS 3 Zrotation Xrotation Yrotation
      JOINT rShin
      {
        OFFSET 0 -36.8199 0.73152
        CHANNELS 3 Zrotation Xrotation Yrotation
        JOINT rFoot
        {
          OFFSET 0.73152 -45.1104 -5.12064
          CHANNELS 3 Zrotation Xrotation Yrotation
          End Site
          {
            OFFSET -1.1221 -3.69964 12.103
          }
        }
      }
    }
  }
  JOINT lButtock
  {
    OFFSET 8.77824 4.35084 1.2192
    CHANNELS 3 Zrotation Xrotation Yrotation
    JOINT lThigh
    {
      OFFSET 0 -1.70687 -2.19456
      CHANNELS 3 Zrotation Xrotation Yrotation
      JOINT lShin
      {
        OFFSET 0 -36.8199 0.73152
        CHANNELS 3 Zrotation Xrotation Yrotation
        JOINT lFoot
        {
          OFFSET -0.73152 -45.1104 -5.12064
          CHANNELS 3 Zrotation Xrotation Yrotation
          End Site
          {
            OFFSET 1.1221 -3.69964 12.103
          }
        }
      }
    }
  }
}
MOTION
Frames:	9
Frame Time:	0.00833333
60.5494 99.8775 59.4285 314.677 165.654 119.518 11.854 16.6404 -4.49101 1.12999 -11.3997 -0.618449 0.0200045 -4.35578 -4.97295 -15.0572 -38.634 -17.7708 -0.0 0.0 0.0 -0.0 0.0 0.0 2.53368e-13 5.09785e-13 7.88373e-13 74.7384 -64.0696 119.796 -9.30209 -3.72529 16.5031 -1.28672 30.4161 4.73227 -1.01601e-09 2.4002e-09 -3.64934e-09 -1.8253e-09 4.16845e-09 -6.27406e-09 -1.016e-09 2.4002e-09 -3.64936e-09 7.73091 5.47488 0.417314 -1.016e-09 2.40019e-09 -3.64934e-09 2.90554 0.965183 0.102902 -1.016e-09 2.40021e-09 -3.64935e-09 10.2786 0.731801 0.0259123 -1.01602e-09 2.4002e-09 -3.64934e-09 2.22167 -0.733487 -0.20892 2.53284e-13 5.09781e-13 7.88002e-13 41.6963 -23.94 22.3004 19.0941 -11.9116 -36.5287 160.493 45.7555 -171.703 -6.01793e-10 6.08057e-09 -3.52401e-09 -1.38623e-09 9.72041e-09 -5.71129e-09 -6.01797e-10 6.08057e-09 -3.52399e-09 -7.73091 5.47488 -0.417314 -6.01794e-10 6.08057e-09 -3.524e-09 -2.90554 0.965183 -0.102902 -6.018e-10 6.08057e-09 -3.524e-09 -10.2786 0.731801 -0.0259123 -6.01787e-10 6.08057e-09 -3.524e-09 -2.22167 -0.733487 0.20892 -2.03217e-16 0.0 -3.88251e-19 -120.57 -60.4446 -86.2143 -0.865001 55.4368 1.16749 -4.85735 -3.84213 -19.5304 2.03217e-16 0.0 3.88251e-19 25.001 10.8722 8.38637 -0.059573 0.539173 -0.523845 4.29623 -8.44324 18.7874
61.1608 101.08 57.5675 315.294 163.797 121.208 9.99286 16.6962 -4.43319 1.44533 -11.6674 -0.63127 -0.0163643 -4.35631 -4.89558 -15.0772 -38.647 -17.5569 -0.0 0.0 0.0 -0.0 0.0 0.0 3.43584e-13 5.50236e-13 9.94172e-13 77.0888 -64.1682 121.689 -9.38081 -3.77354 16.6454 -1.3414 30.9723 4.83883 2.9137e-11 1.12299e-09 -2.89127e-09 -8.68689e-12 1.97291e-09 -4.98316e-09 2.91498e-11 1.12299e-09 -2.89129e-09 7.73091 5.47488 0.417314 2.91437e-11 1.12299e-09 -2.89126e-09 2.90554 0.965183 0.102902 2.91463e-11 1.123e-09 -2.89127e-09 10.2786 0.731801 0.0259123 2.91271e-11 1.12299e-09 -2.89127e-09 2.22167 -0.733487 -0.20892 3.43488e-13 5.50236e-13 9.93824e-13 41.513 -23.4664 23.2742 19.0341 -11.8433 -36.3836 160.486 45.796 -171.692 -6.73527e-10 6.26287e-09 -3.65684e-09 -1.51777e-09 9.99929e-09 -5.92322e-09 -6.73533e-10 6.26287e-09 -3.65683e-09 -7.73091 5.47488 -0.417314 -6.73529e-10 6.26287e-09 -3.65684e-09 -2.90554 0.965183 -0.102902 -6.73537e-10 6.26287e-09 -3.65683e-09 -10.2786 0.731801 -0.0259123 -6.73519e-10 6.26287e-09 -3.65683e-09 -2.22167 -0.733487 0.20892 -2.03217e-16 0.0 -3.88251e-19 -113.979 -60.6917 -83.8996 -0.95535 57.3525 1.18913 -3.88358 -2.12523 -17.0616 2.03217e-16 0.0 3.88251e-19 27.9984 9.43 10.3088 -0.064573 0.563316 -0.568204 4.19049 -9.62276 17.0933
61.6731 102.259 55.5237 316.043 161.775 122.772 7.73942 16.5189 -4.61765 1.93706 -11.7227 -0.727397 -0.193795 -3.87555 -4.81733 -15.2153 -39.2455 -17.456 -0.0 0.0 0.0 -0.0 0.0 0.0 3.96046e-13 3.62281e-13 7.8977e-13 76.5432 -65.1483 120.947 -9.61875 -3.91559 17.085 -1.24293 29.9881 4.64936 1.05043e-09 -1.1374e-10 -1.41918e-09 1.78016e-09 -1.60607e-10 -2.46153e-09 1.05044e-09 -1.13739e-10 -1.41919e-09 7.73091 5.47488 0.417314 1.05044e-09 -1.13745e-10 -1.41917e-09 2.90554 0.965183 0.102902 1.05044e-09 -1.13736e-10 -1.41918e-09 10.2786 0.731801 0.0259123 1.05042e-09 -1.13738e-10 -1.41917e-09 2.22167 -0.733487 -0.20892 3.9596e-13 3.62288e-13 7.89457e-13 41.3589 -23.3517 24.2138 18.8768 -11.6642 -36.0098 160.51 45.6798 -171.725 -5.16113e-10 4.35903e-09 -2.59765e-09 -1.13722e-09 6.94682e-09 -4.20988e-09 -5.16119e-10 4.35903e-09 -2.59764e-09 -7.73091 5.47488 -0.417314 -5.16115e-10 4.35903e-09 -2.59764e-09 -2.90554 0.965183 -0.102902 -5.16124e-10 4.35903e-09 -2.59764e-09 -10.2786 0.731801 -0.0259123 -5.16106e-10 4.35903e-09 -2.59764e-09 -2.22167 -0.733487 0.20892 -2.03217e-16 0.0 -3.88251e-19 -103.998 -61.0962 -75.7568 -0.927088 56.8245 1.11478 -3.51886 -1.09793 -16.5415 2.03217e-16 0.0 3.88251e-19 30.2727 7.23553 12.5238 -0.0620675 0.757916 -0.551088 3.59751 -10.4939 13.8455
62.4195 103.874 53.5776 316.179 159.143 125.949 5.15655 16.1867 -4.92831 2.57929 -11.6633 -0.868987 -0.481977 -3.08185 -4.7365 -15.4063 -40.2008 -17.4048 -0.0 0.0 0.0 -0.0 0.0 0.0 4.24764e-13 2.94109e-14 3.55734e-13 73.5831 -66.6993 117.863 -9.96598 -4.12278 17.7357 -1.05843 27.9082 4.26567 2.29022e-09 -1.61949e-09 6.69335e-10 3.95778e-09 -2.76188e-09 1.11902e-09 2.29023e-09 -1.61949e-09 6.69327e-10 7.73091 5.47488 0.417314 2.29022e-09 -1.61949e-09 6.69342e-10 2.90554 0.965183 0.102902 2.29023e-09 -1.61948e-09 6.69338e-10 10.2786 0.731801 0.0259123 2.29021e-09 -1.61949e-09 6.69347e-10 2.22167 -0.733487 -0.20892 4.24702e-13 2.94289e-14 3.55467e-13 41.1704 -23.466 25.0922 18.6501 -11.4072 -35.4838 160.568 45.397 -171.807 -2.36042e-10 1.18018e-09 -7.9582e-10 -4.70382e-10 1.85514e-09 -1.294e-09 -2.36046e-10 1.18019e-09 -7.95811e-10 -7.73091 5.47488 -0.417314 -2.36042e-10 1.18018e-09 -7.95816e-10 -2.90554 0.965183 -0.102902 -2.36054e-10 1.18018e-09 -7.95814e-10 -10.2786 0.731801 -0.0259123 -2.36036e-10 1.18018e-09 -7.95815e-10 -2.22167 -0.733487 0.20892 -2.03217e-16 0.0 -3.88251e-19 -91.5649 -60.5835 -63.8044 -0.839861 54.8672 0.994901 -3.4583 -0.582587 -17.1035 2.03217e-16 0.0 3.88251e-19 32.2197 4.37497 15.0964 -0.0556989 1.06481 -0.49891 2.61246 -11.2171 9.39478
62.6171 104.769 51.5735 315.695 156.209 126.036 2.51174 15.8053 -5.25253 3.13787 -11.5174 -1.03155 -0.746593 -2.2558 -4.67309 -15.7052 -41.0887 -17.4292 -0.0 0.0 0.0 -0.0 0.0 0.0 4.14467e-13 -3.14194e-13 -1.364e-13 68.7944 -68.4754 112.815 -10.371 -4.36972 18.5003 -0.853695 25.2509 3.79974 3.35072e-09 -2.76046e-09 2.58377e-09 5.82375e-09 -4.73442e-09 4.40187e-09 3.35073e-09 -2.76045e-09 2.58377e-09 7.73091 5.47488 0.417314 3.35072e-09 -2.76046e-09 2.58378e-09 2.90554 0.965183 0.102902 3.35072e-09 -2.76045e-09 2.58378e-09 10.2786 0.731801 0.0259123 3.35071e-09 -2.76045e-09 2.58379e-09 2.22167 -0.733487 -0.20892 4.1443e-13 -3.14165e-13 -1.36624e-13 40.9265 -23.5947 26.0318 18.4027 -11.1287 -34.9227 160.621 45.1396 -171.881 6.35614e-11 -2.13614e-09 1.08249e-09 2.36892e-10 -3.45653e-09 1.74643e-09 6.35596e-11 -2.13613e-09 1.08249e-09 -7.73091 5.47488 -0.417314 6.35635e-11 -2.13613e-09 1.08249e-09 -2.90554 0.965183 -0.102902 6.35488e-11 -2.13613e-09 1.08249e-09 -10.2786 0.731801 -0.0259123 6.35665e-11 -2.13613e-09 1.08248e-09 -2.22167 -0.733487 0.20892 -2.03217e-16 0.0 -3.88251e-19 -78.8782 -58.5511 -50.8978 -0.726694 52.0005 0.852258 -3.45282 -0.152317 -18.1 2.03217e-16 0.0 3.88251e-19 34.239 1.37555 18.0358 -0.0479995 1.37661 -0.42948 1.48129 -11.6337 4.72432
63.185 105.91 50.0248 316.413 154.285 127.587 0.077215 15.4807 -5.47885 3.37837 -11.3136 -1.19064 -0.850953 -1.67817 -4.6458 -16.1679 -41.4839 -17.5488 -0.0 0.0 0.0 -0.0 0.0 0.0 3.49888e-13 -5.34351e-13 -5.15101e-13 62.9719 -70.1606 106.404 -10.7844 -4.63191 19.2809 -0.666344 22.5369 3.34339 3.83413e-09 -2.90286e-09 3.53365e-09 6.67763e-09 -4.98174e-09 6.03041e-09 3.83414e-09 -2.90285e-09 3.53365e-09 7.73091 5.47488 0.417314 3.83412e-09 -2.90285e-09 3.53365e-09 2.90554 0.965183 0.102902 3.83413e-09 -2.90285e-09 3.53366e-09 10.2786 0.731801 0.0259123 3.83412e-09 -2.90285e-09 3.53367e-09 2.22167 -0.733487 -0.20892 3.49857e-13 -5.34315e-13 -5.153e-13 40.5935 -23.5238 27.1483 18.1874 -10.8896 -34.442 160.629 45.1001 -171.892 2.79574e-10 -4.45238e-09 2.37111e-09 7.38759e-10 -7.16891e-09 3.83347e-09 2.79574e-10 -4.45237e-09 2.37111e-09 -7.73091 5.47488 -0.417314 2.79577e-10 -4.45238e-09 2.37111e-09 -2.90554 0.965183 -0.102902 2.79561e-10 -4.45238e-09 2.37111e-09 -10.2786 0.731801 -0.0259123 2.79578e-10 -4.45238e-09 2.3711e-09 -2.22167 -0.733487 0.20892 -2.03217e-16 0.0 -3.88251e-19 -67.78 -55.3448 -39.6113 -0.611946 48.7443 0.700778 -3.26459 0.622551 -18.8895 2.03217e-16 0.0 3.88251e-19 36.6393 -1.2481 21.341 -0.0407367 1.58594 -0.3606 0.521887 -11.6381 0.83515
63.588 106.839 48.4742 316.5 152.203 128.458 -2.03114 15.2386 -5.59192 3.17969 -11.0297 -1.35118 -0.681609 -1.46558 -4.66497 -16.9666 -41.1918 -17.8515 -0.0 0.0 0.0 -0.0 0.0 0.0 1.72052e-13 -5.69042e-13 -7.53309e-13 55.2272 -71.6896 97.6459 -11.2435 -4.93781 20.1448 -0.479353 19.6057 2.86508 3.58786e-09 -1.44494e-09 3.07781e-09 6.24868e-09 -2.46346e-09 5.24762e-09 3.58787e-09 -1.44494e-09 3.07781e-09 7.73091 5.47488 0.417314 3.58785e-09 -1.44494e-09 3.07781e-09 2.90554 0.965183 0.102902 3.58786e-09 -1.44494e-09 3.07781e-09 10.2786 0.731801 0.0259123 3.58785e-09 -1.44494e-09 3.07782e-09 2.22167 -0.733487 -0.20892 1.72005e-13 -5.69001e-13 -7.53508e-13 40.196 -23.1591 28.5165 18.0186 -10.7059 -34.0647 160.574 45.3722 -171.815 4.01298e-10 -5.41646e-09 2.86003e-09 9.92447e-10 -8.71295e-09 4.6278e-09 4.01298e-10 -5.41645e-09 2.86003e-09 -7.73091 5.47488 -0.417314 4.01302e-10 -5.41646e-09 2.86003e-09 -2.90554 0.965183 -0.102902 4.01287e-10 -5.41646e-09 2.86003e-09 -10.2786 0.731801 -0.0259123 4.01303e-10 -5.41646e-09 2.86002e-09 -2.22167 -0.733487 0.20892 -2.03217e-16 0.0 -3.88251e-19 -58.2725 -51.4477 -29.858 -0.509842 45.2208 0.545555 -2.9458 1.60301 -19.2991 2.03217e-16 0.0 3.88251e-19 39.6014 -3.14578 24.9577 -0.0327635 1.63737 -0.286837 -0.0886246 -11.3041 -1.85979
64.0417 107.935 47.2258 316.627 150.254 129.845 -3.97111 15.0235 -5.64686 2.68781 -10.6605 -1.52218 -0.335976 -1.45446 -4.71829 -18.008 -40.4663 -18.292 -0.0 0.0 0.0 -0.0 0.0 0.0 -9.25963e-14 -4.98574e-13 -9.36282e-13 44.6396 -72.7395 85.7091 -11.7519 -5.28582 21.1138 -0.310396 16.2779 2.34507 2.83957e-09 1.13101e-09 1.71463e-09 4.93844e-09 1.9863e-09 2.90879e-09 2.83958e-09 1.13102e-09 1.71463e-09 7.73091 5.47488 0.417314 2.83957e-09 1.13102e-09 1.71463e-09 2.90554 0.965183 0.102902 2.83958e-09 1.13102e-09 1.71463e-09 10.2786 0.731801 0.0259123 2.83957e-09 1.13102e-09 1.71464e-09 2.22167 -0.733487 -0.20892 -9.26742e-14 -4.98531e-13 -9.36496e-13 39.7212 -22.6261 30.0521 17.87 -10.547 -33.7311 160.478 45.8389 -171.68 4.78133e-10 -5.65132e-09 2.91533e-09 1.12148e-09 -9.08689e-09 4.72162e-09 4.78132e-10 -5.65131e-09 2.91533e-09 -7.73091 5.47488 -0.417314 4.78136e-10 -5.65132e-09 2.91533e-09 -2.90554 0.965183 -0.102902 4.78124e-10 -5.65132e-09 2.91533e-09 -10.2786 0.731801 -0.0259123 4.78139e-10 -5.65132e-09 2.91532e-09 -2.22167 -0.733487 0.20892 -2.03217e-16 0.0 -3.88251e-19 -50.3361 -46.5651 -21.1341 -0.419843 41.158 0.389583 -2.58377 2.64384 -19.6749 2.03217e-16 0.0 3.88251e-19 42.9002 -4.62866 28.9064 -0.02323 1.59709 -0.202093 -0.467004 -10.6814 -3.92654
64.3404 108.584 46.1632 317.818 149.139 130.473 -5.87755 14.8191 -5.63868 2.0677 -10.2595 -1.68553 0.00709088 -1.50535 -4.78987 -18.9547 -39.555 -18.6896 -0.0 0.0 0.0 -0.0 0.0 0.0 -3.31201e-13 -4.02262e-13 -1.06096e-12 33.4685 -72.9799 72.963 -12.2187 -5.61029 22.0216 -0.195081 13.0498 1.86186 1.76185e-09 3.83281e-09 6.2932e-11 3.05495e-09 6.65228e-09 7.57298e-11 1.76186e-09 3.83281e-09 6.29224e-11 7.73091 5.47488 0.417314 1.76185e-09 3.83281e-09 6.29334e-11 2.90554 0.965183 0.102902 1.76186e-09 3.83281e-09 6.29309e-11 10.2786 0.731801 0.0259123 1.76185e-09 3.83281e-09 6.29389e-11 2.22167 -0.733487 -0.20892 -3.31315e-13 -4.0222e-13 -1.06119e-12 39.076 -22.0428 31.6309 17.7365 -10.4062 -33.4317 160.363 46.3768 -171.52 4.97098e-10 -5.48195e-09 2.73498e-09 1.12945e-09 -8.82245e-09 4.43422e-09 4.97096e-10 -5.48194e-09 2.73499e-09 -7.73091 5.47488 -0.417314 4.971e-10 -5.48195e-09 2.73499e-09 -2.90554 0.965183 -0.102902 4.9709e-10 -5.48195e-09 2.73498e-09 -10.2786 0.731801 -0.0259123 4.97104e-10 -5.48195e-09 2.73498e-09 -2.22167 -0.733487 0.20892 -2.03217e-16 0.0 -3.88251e-19 -44.1836 -40.7443 -13.9348 -0.33609 36.4849 0.234764 -1.97863 4.15995 -20.1677 2.03217e-16 0.0 3.88251e-19 46.2502 -6.1424 33.2997 -0.0139725 1.54017 -0.123173 -0.70547 -9.66422 -5.82578
